{"title":"An.American.in.Paris.1951.720p.BluRay.x264-Gabe","uid":6409725,"size":4633026099,"categoryP":"video","categoryS":"hd___movies","magnet":"?xt=urn:btih:bc08b7a8fbd0c9df029953b5a1a8dcd7a9e97877&amp;dn=An.American.in.Paris.1951.720p.BluRay.x264-Gabe&amp;tr=udp%3A%2F%2Ftracker.openbittorrent.com%3A80&amp;tr=udp%3A%2F%2Fopen.demonii.com%3A1337&amp;tr=udp%3A%2F%2Ftracker.coppersurfer.tk%3A6969&amp;tr=udp%3A%2F%2Fexodus.desync.com%3A6969","seeders":0,"leechers":1,"uploader":"-Gabe-","files":-1,"time":1305927199,"description":"Format                           : Matroska\nFile size                        : 4.31 GiB\nDuration                         : 1h 53mn\nOverall bit rate                 : 5 440 Kbps\n\nVideo\nFormat settings, ReFrames        : 7 frames\nCodec ID                         : V_MPEG4/ISO/AVC\nNominal bit rate                 : 5 164 Kbps\nWidth                            : 984 pixels\nHeight                           : 720 pixels\nDisplay aspect ratio             : 4:3\nFrame rate                       : 23.976 fps\n\nAudio #1 English\nID                               : 2\nFormat                           : AC-3\nCodec ID                         : A_AC3\nDuration                         : 1h 53mn\nBit rate mode                    : Constant\nBit rate                         : 192 Kbps\nChannel(s)                       : 1 channel\nChannel positions                : Front: C\nSampling rate                    : 48.0 KHz\nBit depth                        : 16 bits\nStream size                      : 156 MiB (4%)\n\nAudio #2 Commentary\nID                               : 3\nFormat                           : AAC\nFormat/Info                      : Advanced Audio Codec\nFormat settings, PS              : Yes\nCodec ID                         : A_AAC\nDuration                         : 1h 53mn\nChannel(s)                       : 2 channels\nChannel positions                : Front: L R\nSampling rate                    : 48.0 KHz\nTitle                            : Commentary\nLanguage                         : English\nStream size                      : 156 MiB (4%)\n\n\nScreens:\n\n &lt;a href=&quot;\nhttp://shareimage.ro/images/j1bfe30vsqicw24x4c5.jpg&quot; rel=&quot;nofollow&quot; target=&quot;_NEW&quot;&gt;\nhttp://shareimage.ro/images/j1bfe30vsqicw24x4c5.jpg&lt;/a&gt;\n\n &lt;a href=&quot;\nhttp://shareimage.ro/images/ahcsy06xi7z24qtwvf.jpg&quot; rel=&quot;nofollow&quot; target=&quot;_NEW&quot;&gt;\nhttp://shareimage.ro/images/ahcsy06xi7z24qtwvf.jpg&lt;/a&gt;\n\n &lt;a href=&quot;\nhttp://shareimage.ro/images/guukucm3c3p7aweyeb.jpg&quot; rel=&quot;nofollow&quot; target=&quot;_NEW&quot;&gt;\nhttp://shareimage.ro/images/guukucm3c3p7aweyeb.jpg&lt;/a&gt;\n\n &lt;a href=&quot;\nhttp://shareimage.ro/images/96y6drzfqvuok8vg115.jpg&quot; rel=&quot;nofollow&quot; target=&quot;_NEW&quot;&gt;\nhttp://shareimage.ro/images/96y6drzfqvuok8vg115.jpg&lt;/a&gt;\n\n &lt;a href=&quot;\nhttp://shareimage.ro/images/2s6ljvqba1q78p1dvs8m.jpg&quot; rel=&quot;nofollow&quot; target=&quot;_NEW&quot;&gt;\nhttp://shareimage.ro/images/2s6ljvqba1q78p1dvs8m.jpg&lt;/a&gt;\n\n &lt;a href=&quot;\nhttp://shareimage.ro/images/wq4e87zc6xlowwtptsab.jpg&quot; rel=&quot;nofollow&quot; target=&quot;_NEW&quot;&gt;\nhttp://shareimage.ro/images/wq4e87zc6xlowwtptsab.jpg&lt;/a&gt;\n\n &lt;a href=&quot;\nhttp://shareimage.ro/images/gqkrp92kwc6s5gpab2n.jpg&quot; rel=&quot;nofollow&quot; target=&quot;_NEW&quot;&gt;\nhttp://shareimage.ro/images/gqkrp92kwc6s5gpab2n.jpg&lt;/a&gt;","torrent":{"xt":"urn:btih:bc08b7a8fbd0c9df029953b5a1a8dcd7a9e97877","amp;dn":"An.American.in.Paris.1951.720p.BluRay.x264-Gabe","amp;tr":["udp%3A%2F%2Ftracker.openbittorrent.com%3A80","udp%3A%2F%2Fopen.demonii.com%3A1337","udp%3A%2F%2Ftracker.coppersurfer.tk%3A6969","udp%3A%2F%2Fexodus.desync.com%3A6969"],"infoHash":"bc08b7a8fbd0c9df029953b5a1a8dcd7a9e97877","infoHashBuffer":{"type":"Buffer","data":[188,8,183,168,251,208,201,223,2,153,83,181,161,168,220,215,169,233,120,119]},"announce":[],"urlList":[]}}